<svg width="18" height="17" viewBox="0 0 18 17" fill="none" xmlns="http://www.w3.org/2000/svg">
<path d="M9.58064 7.55229C9.81402 7.63213 10.0412 7.71995 10.2623 7.81575C10.4834 7.91155 10.6984 8.02065 10.9072 8.14307C10.7721 8.2708 10.6493 8.40386 10.5387 8.54224C10.4282 8.68062 10.3268 8.82964 10.2347 8.98931C9.76181 8.72319 9.25822 8.52095 8.72391 8.38257C8.18961 8.24419 7.63995 8.175 7.07494 8.175C6.53449 8.175 6.01247 8.23621 5.50887 8.35862C5.00527 8.48103 4.53545 8.65134 4.09941 8.86956C3.66337 9.08777 3.26724 9.35388 2.91104 9.6679C2.55484 9.98191 2.24777 10.3279 1.98983 10.7057C1.73189 11.0836 1.53229 11.4908 1.39104 11.9272C1.24978 12.3636 1.17916 12.816 1.17916 13.2844H0C0 12.6457 0.107475 12.031 0.322425 11.4402C0.537376 10.8494 0.847518 10.3039 1.25285 9.80361C1.65819 9.30332 2.13722 8.85891 2.68995 8.47039C3.24268 8.08186 3.86911 7.77583 4.56923 7.55229C3.87525 7.15845 3.3348 6.66348 2.94789 6.06738C2.56098 5.47129 2.36445 4.81133 2.35831 4.0875C2.35831 3.52334 2.48114 2.99377 2.7268 2.4988C2.97246 2.00383 3.30716 1.57007 3.73092 1.19751C4.15468 0.824951 4.65521 0.532227 5.2325 0.319336C5.8098 0.106445 6.42394 0 7.07494 0C7.72593 0 8.337 0.106445 8.90815 0.319336C9.47931 0.532227 9.97983 0.82229 10.4097 1.18953C10.8396 1.55676 11.1774 1.99053 11.4231 2.49082C11.6687 2.99111 11.7916 3.52334 11.7916 4.0875C11.7916 4.43877 11.7424 4.78206 11.6442 5.11736C11.5459 5.45266 11.3985 5.76934 11.202 6.06738C11.0055 6.36543 10.7752 6.63953 10.5111 6.88967C10.247 7.13982 9.93684 7.36069 9.58064 7.55229ZM3.53747 4.0875C3.53747 4.51328 3.62959 4.90979 3.81383 5.27703C3.99808 5.64426 4.24987 5.96892 4.56923 6.251C4.88858 6.53308 5.26321 6.75396 5.69311 6.91362C6.12301 7.07329 6.58362 7.15313 7.07494 7.15313C7.56011 7.15313 8.01765 7.07329 8.44755 6.91362C8.87745 6.75396 9.25207 6.53574 9.57143 6.25898C9.89078 5.98223 10.1457 5.65757 10.336 5.28501C10.5264 4.91245 10.6185 4.51328 10.6124 4.0875C10.6124 3.66704 10.5203 3.27053 10.336 2.89797C10.1518 2.52542 9.9 2.20076 9.58064 1.924C9.26129 1.64724 8.88359 1.42637 8.44755 1.26138C8.0115 1.09639 7.55397 1.01655 7.07494 1.02188C6.58362 1.02188 6.12608 1.10171 5.70232 1.26138C5.27856 1.42104 4.90394 1.63926 4.57844 1.91602C4.25294 2.19277 3.99808 2.52009 3.81383 2.89797C3.62959 3.27585 3.53747 3.67236 3.53747 4.0875ZM17.0978 10.7297C17.0978 11.0064 17.0486 11.2752 16.9504 11.536C16.8521 11.7968 16.7047 12.039 16.5082 12.2625V16.35L14.1499 15.3281L11.7916 16.35V12.2625C11.6012 12.039 11.4569 11.7968 11.3586 11.536C11.2603 11.2752 11.2081 11.0064 11.202 10.7297C11.202 10.3784 11.2787 10.0484 11.4323 9.73975C11.5858 9.43106 11.7946 9.16228 12.0587 8.93342C12.3228 8.70457 12.636 8.52095 12.9984 8.38257C13.3607 8.24419 13.7445 8.175 14.1499 8.175C14.5552 8.175 14.936 8.24153 15.2922 8.37459C15.6484 8.50764 15.9585 8.69126 16.2226 8.92544C16.4867 9.15962 16.6986 9.43106 16.8582 9.73975C17.0179 10.0484 17.0978 10.3784 17.0978 10.7297ZM14.1499 9.19688C13.9042 9.19688 13.6739 9.23679 13.459 9.31663C13.244 9.39646 13.0567 9.50557 12.897 9.64395C12.7373 9.78232 12.6114 9.94465 12.5193 10.1309C12.4272 10.3172 12.3811 10.5168 12.3811 10.7297C12.3811 10.9426 12.4272 11.1422 12.5193 11.3284C12.6114 11.5147 12.7373 11.6771 12.897 11.8154C13.0567 11.9538 13.244 12.0629 13.459 12.1427C13.6739 12.2226 13.9042 12.2625 14.1499 12.2625C14.3955 12.2625 14.6258 12.2226 14.8408 12.1427C15.0557 12.0629 15.243 11.9538 15.4027 11.8154C15.5624 11.6771 15.6883 11.5147 15.7804 11.3284C15.8725 11.1422 15.9186 10.9426 15.9186 10.7297C15.9186 10.5168 15.8725 10.3172 15.7804 10.1309C15.6883 9.94465 15.5624 9.78232 15.4027 9.64395C15.243 9.50557 15.0557 9.39646 14.8408 9.31663C14.6258 9.23679 14.3955 9.19688 14.1499 9.19688ZM15.329 14.6974V13.0688C14.9605 13.2125 14.5675 13.2844 14.1499 13.2844C13.7323 13.2844 13.3392 13.2125 12.9707 13.0688V14.6974C13.1672 14.6123 13.3638 14.5298 13.5603 14.45C13.7568 14.3701 13.9533 14.2823 14.1499 14.1865C14.3464 14.277 14.5429 14.3621 14.7394 14.442C14.936 14.5218 15.1325 14.607 15.329 14.6974Z" fill="white"/>
</svg>
