<svg width="18" height="17" viewBox="0 0 18 17" fill="none" xmlns="http://www.w3.org/2000/svg">
<path d="M14.9625 0H8.55V5.7225L5.87813 4.49625L3.20625 5.7225V0H2.1375C1.5706 0 1.02692 0.172258 0.626059 0.47888C0.2252 0.785502 0 1.20137 0 1.635V14.715C0 15.1486 0.2252 15.5645 0.626059 15.8711C1.02692 16.1777 1.5706 16.35 2.1375 16.35H14.9625C15.5294 16.35 16.0731 16.1777 16.4739 15.8711C16.8748 15.5645 17.1 15.1486 17.1 14.715V1.635C17.1 1.20137 16.8748 0.785502 16.4739 0.47888C16.0731 0.172258 15.5294 0 14.9625 0ZM10.6875 8.175C11.1103 8.175 11.5235 8.27089 11.875 8.45055C12.2265 8.6302 12.5005 8.88556 12.6623 9.18431C12.8241 9.48307 12.8664 9.81181 12.7839 10.129C12.7015 10.4461 12.4979 10.7375 12.1989 10.9661C11.9 11.1948 11.5191 11.3505 11.1045 11.4136C10.6899 11.4767 10.2601 11.4443 9.86951 11.3205C9.47894 11.1968 9.14511 10.9872 8.91023 10.7184C8.67536 10.4495 8.55 10.1334 8.55 9.81C8.55 9.37637 8.7752 8.9605 9.17606 8.65388C9.57692 8.34726 10.1206 8.175 10.6875 8.175ZM14.9625 14.715H6.4125V13.8975C6.4125 12.8102 9.26606 12.2625 10.6875 12.2625C12.1089 12.2625 14.9625 12.8102 14.9625 13.8975V14.715Z" fill="white"/>
</svg>
