<svg width="18" height="17" viewBox="0 0 18 17" fill="none" xmlns="http://www.w3.org/2000/svg">
<path d="M12.3975 12.6713V14.3063C12.3975 14.4153 12.4403 14.5106 12.5258 14.5924C12.6113 14.6741 12.711 14.715 12.825 14.715C12.939 14.715 13.0388 14.6741 13.1243 14.5924C13.2098 14.5106 13.2525 14.4153 13.2525 14.3063V12.6713H14.9625C15.0765 12.6713 15.1763 12.6304 15.2618 12.5486C15.3473 12.4669 15.39 12.3715 15.39 12.2625C15.39 12.1535 15.3473 12.0581 15.2618 11.9764C15.1763 11.8946 15.0765 11.8538 14.9625 11.8538H13.2525V10.2188C13.2525 10.1098 13.2098 10.0144 13.1243 9.93263C13.0388 9.85088 12.939 9.81 12.825 9.81C12.711 9.81 12.6113 9.85088 12.5258 9.93263C12.4403 10.0144 12.3975 10.1098 12.3975 10.2188V11.8538H10.6875C10.5735 11.8538 10.4738 11.8946 10.3883 11.9764C10.3028 12.0581 10.26 12.1535 10.26 12.2625C10.26 12.3715 10.3028 12.4669 10.3883 12.5486C10.4738 12.6304 10.5735 12.6713 10.6875 12.6713H12.3975ZM12.825 16.35C11.6423 16.35 10.6339 15.9513 9.80001 15.154C8.9661 14.3567 8.54943 13.3928 8.55 12.2625C8.55 11.1316 8.96696 10.1675 9.80087 9.37019C10.6348 8.57285 11.6428 8.17446 12.825 8.175C14.0078 8.175 15.0161 8.57367 15.85 9.371C16.6839 10.1683 17.1006 11.1322 17.1 12.2625C17.1 13.3934 16.683 14.3575 15.8491 15.1548C15.0152 15.9522 14.0072 16.3505 12.825 16.35ZM4.275 4.905H11.115C11.3573 4.905 11.5605 4.82652 11.7246 4.66956C11.8888 4.5126 11.9706 4.31858 11.97 4.0875C11.97 3.85588 11.8879 3.66158 11.7238 3.50462C11.5596 3.34766 11.3567 3.26946 11.115 3.27H4.275C4.03275 3.27 3.82955 3.34848 3.66539 3.50544C3.50123 3.6624 3.41943 3.85642 3.42 4.0875C3.42 4.31913 3.50208 4.51342 3.66624 4.67038C3.8304 4.82734 4.03332 4.90555 4.275 4.905ZM7.41713 14.715H1.71C1.23975 14.715 0.837046 14.5548 0.501886 14.2343C0.166726 13.9139 -0.000568548 13.5291 1.45161e-06 13.08V1.635C1.45161e-06 1.18538 0.167581 0.800334 0.502741 0.479874C0.837901 0.159414 1.24032 -0.000543612 1.71 1.38795e-06H13.68C14.1503 1.38795e-06 14.553 0.160231 14.8881 0.480691C15.2233 0.801151 15.3906 1.18592 15.39 1.635V7.11225C14.9768 6.9215 14.5598 6.77844 14.1391 6.68306C13.7185 6.58769 13.2804 6.54 12.825 6.54C12.6683 6.54 12.522 6.54327 12.3864 6.54981C12.2507 6.55635 12.1119 6.57352 11.97 6.60131C11.8418 6.57406 11.6993 6.55717 11.5425 6.55063C11.3858 6.54409 11.2433 6.54055 11.115 6.54H4.275C4.03275 6.54 3.82955 6.61848 3.66539 6.77544C3.50123 6.9324 3.41943 7.12642 3.42 7.3575C3.42 7.58913 3.50208 7.78342 3.66624 7.94038C3.8304 8.09734 4.03332 8.17555 4.275 8.175H8.65688C8.40038 8.40663 8.16867 8.65869 7.96176 8.93119C7.75485 9.20369 7.57331 9.49663 7.41713 9.81H4.275C4.03275 9.81 3.82955 9.88848 3.66539 10.0454C3.50123 10.2024 3.41943 10.3964 3.42 10.6275C3.42 10.8591 3.50208 11.0534 3.66624 11.2104C3.8304 11.3673 4.03332 11.4455 4.275 11.445H6.90413C6.87563 11.5813 6.85767 11.7142 6.85026 11.8439C6.84285 11.9737 6.83943 12.1132 6.84 12.2625C6.84 12.7121 6.88275 13.1312 6.96825 13.5198C7.05375 13.9084 7.20338 14.3068 7.41713 14.715Z" fill="white"/>
</svg>
