<svg width="18" height="17" viewBox="0 0 18 17" fill="none" xmlns="http://www.w3.org/2000/svg">
<path fill-rule="evenodd" clip-rule="evenodd" d="M14.535 6.4694C15.0545 6.46941 15.5617 6.63991 15.9895 6.95834C16.4174 7.27677 16.7457 7.72812 16.9311 8.25266C17.1164 8.7772 17.1501 9.35022 17.0276 9.89589C16.9051 10.4416 16.6322 10.9342 16.245 11.3085V15.8879C16.245 15.9667 16.2264 16.0442 16.1908 16.113C16.1553 16.1818 16.1041 16.2397 16.0421 16.2811C15.9801 16.3225 15.9093 16.3461 15.8364 16.3495C15.7636 16.353 15.6912 16.3363 15.626 16.301L14.535 15.7114L13.444 16.301C13.3788 16.3363 13.3064 16.353 13.2336 16.3495C13.1607 16.3461 13.0899 16.3225 13.0279 16.2811C12.9659 16.2397 12.9147 16.1818 12.8792 16.113C12.8436 16.0442 12.825 15.9667 12.825 15.8879V11.3085C12.4378 10.9342 12.1649 10.4416 12.0424 9.89589C11.9199 9.35022 11.9536 8.7772 12.1389 8.25266C12.3243 7.72812 12.6526 7.27677 13.0805 6.95834C13.5083 6.63991 14.0155 6.46941 14.535 6.4694ZM15.39 0C15.8435 0 16.2785 0.194741 16.5992 0.541384C16.9198 0.888026 17.1 1.35817 17.1 1.8484V5.5452C16.2768 4.87779 15.2584 4.55377 14.2319 4.63262C13.2055 4.71148 12.2398 5.18791 11.5121 5.97446C10.7845 6.761 10.3437 7.80487 10.2708 8.91442C10.1978 10.024 10.4976 11.1247 11.115 12.0146V14.7872H1.71C1.25648 14.7872 0.821535 14.5925 0.500847 14.2458C0.18016 13.8992 0 13.429 0 12.9388V1.8484C0 1.35817 0.18016 0.888026 0.500847 0.541384C0.821535 0.194741 1.25648 0 1.71 0H15.39ZM5.13 8.3178H3.42C3.19324 8.3178 2.97577 8.41517 2.81542 8.58849C2.65508 8.76181 2.565 8.99688 2.565 9.242C2.565 9.48711 2.65508 9.72218 2.81542 9.8955C2.97577 10.0688 3.19324 10.1662 3.42 10.1662H5.13C5.35676 10.1662 5.57423 10.0688 5.73458 9.8955C5.89492 9.72218 5.985 9.48711 5.985 9.242C5.985 8.99688 5.89492 8.76181 5.73458 8.58849C5.57423 8.41517 5.35676 8.3178 5.13 8.3178ZM8.55 4.621H3.42C3.20208 4.62126 2.99247 4.71146 2.83401 4.87316C2.67555 5.03487 2.58019 5.25588 2.56742 5.49103C2.55465 5.72619 2.62543 5.95774 2.7653 6.13838C2.90517 6.31902 3.10357 6.43511 3.31996 6.46293L3.42 6.4694H8.55C8.76792 6.46914 8.97753 6.37894 9.13599 6.21723C9.29445 6.05552 9.38981 5.83452 9.40258 5.59936C9.41535 5.36421 9.34457 5.13265 9.2047 4.95202C9.06483 4.77138 8.86643 4.65529 8.65003 4.62747L8.55 4.621Z" fill="white"/>
</svg>
