<svg width="18" height="17" viewBox="0 0 18 17" fill="none" xmlns="http://www.w3.org/2000/svg">
<path d="M15.7825 3.92505H12.4945C12.4945 2.88406 12.0788 1.88571 11.3389 1.14962C10.5989 0.413531 9.59533 0 8.54888 0C7.50243 0 6.49884 0.413531 5.75889 1.14962C5.01894 1.88571 4.60324 2.88406 4.60324 3.92505H1.31521C0.966396 3.92505 0.631867 4.06289 0.385217 4.30826C0.138567 4.55362 0 4.8864 0 5.2334V15.046C0 15.393 0.138567 15.7258 0.385217 15.9712C0.631867 16.2165 0.966396 16.3544 1.31521 16.3544H15.7825C16.1314 16.3544 16.4659 16.2165 16.7125 15.9712C16.9592 15.7258 17.0978 15.393 17.0978 15.046V5.2334C17.0978 4.8864 16.9592 4.55362 16.7125 4.30826C16.4659 4.06289 16.1314 3.92505 15.7825 3.92505ZM8.54888 1.30835C9.24651 1.30835 9.91557 1.58404 10.4089 2.07476C10.9022 2.56549 11.1793 3.23106 11.1793 3.92505H5.91846C5.91846 3.23106 6.19559 2.56549 6.68889 2.07476C7.18219 1.58404 7.85125 1.30835 8.54888 1.30835Z" fill="white"/>
</svg>
