<svg width="18" height="17" viewBox="0 0 18 17" fill="none" xmlns="http://www.w3.org/2000/svg">
<path d="M6.41248 1.3623C4.54573 1.3623 3.02811 2.81337 3.02811 4.59824C3.02811 6.34905 4.46023 7.76605 6.32698 7.82737C6.38398 7.82055 6.44098 7.82055 6.48374 7.82737H6.53361C7.40953 7.79942 8.23974 7.44687 8.84873 6.84426C9.45771 6.24165 9.79772 5.43621 9.79686 4.59824C9.79686 2.81337 8.27923 1.3623 6.41248 1.3623ZM10.032 9.63881C8.04411 8.37169 4.80223 8.37169 2.80011 9.63881C1.89523 10.2179 1.39648 11.0013 1.39648 11.8392C1.39648 12.6772 1.89523 13.4538 2.79298 14.0261C3.79048 14.6664 5.10148 14.9866 6.41248 14.9866C7.72348 14.9866 9.03448 14.6664 10.032 14.0261C10.9297 13.447 11.4285 12.6704 11.4285 11.8256C11.4214 10.9877 10.9297 10.2111 10.032 9.63881ZM14.2429 4.99882C14.3569 6.32044 13.3736 7.47857 12.0127 7.63525H11.9771C11.9344 7.63525 11.8916 7.63525 11.856 7.64888C11.1649 7.68294 10.5307 7.47175 10.0534 7.08344C10.7872 6.45669 11.2076 5.51657 11.1221 4.49469C11.0732 3.96332 10.8845 3.45242 10.5735 3.00957C10.9468 2.8359 11.3588 2.75169 11.7737 2.7642C12.1887 2.7767 12.5943 2.88554 12.9554 3.08134C13.3166 3.27713 13.6225 3.554 13.8468 3.88806C14.0711 4.22211 14.207 4.60333 14.2429 4.99882Z" fill="white"/>
<path d="M15.6668 11.3022C15.6098 11.963 15.168 12.5353 14.427 12.9236C13.7145 13.2983 12.8168 13.4754 11.9262 13.455C12.4392 13.0121 12.7384 12.4603 12.7954 11.8745C12.8667 11.0297 12.4463 10.219 11.6055 9.57183C11.1282 9.21077 10.5724 8.92464 9.9668 8.71346C11.5414 8.27746 13.5222 8.57039 14.7405 9.51052C15.396 10.0146 15.7309 10.6482 15.6668 11.3022Z" fill="white"/>
</svg>
