<svg width="18" height="17" viewBox="0 0 18 17" fill="none" xmlns="http://www.w3.org/2000/svg">
<path d="M15.5455 11.8909V5.20227H4.66364V11.8909H15.5455ZM15.5455 1.48636C15.9577 1.48636 16.3532 1.64296 16.6447 1.92171C16.9362 2.20046 17.1 2.57852 17.1 2.97273V11.8909C17.1 12.2851 16.9362 12.6632 16.6447 12.9419C16.3532 13.2207 15.9577 13.3773 15.5455 13.3773H4.66364C4.25135 13.3773 3.85594 13.2207 3.56441 12.9419C3.27287 12.6632 3.10909 12.2851 3.10909 11.8909V2.97273C3.10909 2.57852 3.27287 2.20046 3.56441 1.92171C3.85594 1.64296 4.25135 1.48636 4.66364 1.48636H5.44091V0H6.99545V1.48636H13.2136V0H14.7682V1.48636H15.5455ZM12.8483 7.47641L9.39723 10.7761L7.31414 8.78441L8.13805 7.99664L9.39723 9.20059L12.0244 6.68864L12.8483 7.47641ZM1.55455 14.8636H12.4364V16.35H1.55455C1.14225 16.35 0.74685 16.1934 0.455316 15.9147C0.163782 15.6359 0 15.2578 0 14.8636V5.94545H1.55455V14.8636Z" fill="white"/>
</svg>
