<svg width="1309" height="1467" viewBox="0 0 1309 1467" fill="none" xmlns="http://www.w3.org/2000/svg">
<g filter="url(#filter0_d_430_129)">
<path d="M4 158.572C4 149.171 10.5467 141.04 19.7305 139.033L651.717 0.935814C654.539 0.319252 657.461 0.321139 660.281 0.941332L1288.29 139.017C1297.47 141.034 1304 149.16 1304 158.551V1313.31C1304 1322.85 1297.26 1331.06 1287.9 1332.93L658.401 1458.22C655.826 1458.74 653.174 1458.74 650.599 1458.22L20.1015 1332.92C10.7418 1331.06 4 1322.85 4 1313.31V158.572Z" fill="#215D4F"/>
<path d="M4.5 158.572C4.5 149.406 10.883 141.478 19.8372 139.521L651.824 1.42429C654.575 0.823141 657.424 0.82498 660.174 1.42967L1288.19 139.506C1297.13 141.472 1303.5 149.395 1303.5 158.551V1313.31C1303.5 1322.61 1296.93 1330.62 1287.81 1332.43L658.304 1457.73C655.792 1458.23 653.207 1458.23 650.696 1457.73L20.1989 1332.43C11.0732 1330.62 4.5 1322.61 4.5 1313.31V158.572Z" stroke="black"/>
</g>
<g opacity="0.4">
<mask id="mask0_430_129" style="mask-type:luminance" maskUnits="userSpaceOnUse" x="1133" y="1047" width="162" height="163">
<path d="M1133.71 1064.95L1277.22 1047.48L1294.82 1192.09L1151.31 1209.56L1133.71 1064.95Z" fill="white"/>
</mask>
<g mask="url(#mask0_430_129)">
<path d="M1135.92 1068.24C1135.27 1067.73 1135.16 1066.81 1135.67 1066.17C1136.17 1065.52 1137.09 1065.41 1137.74 1065.91L1293.69 1188.02C1294.34 1188.52 1294.45 1189.45 1293.95 1190.09C1293.44 1190.73 1292.52 1190.85 1291.87 1190.34L1135.92 1068.24Z" fill="white"/>
</g>
</g>
<path opacity="0.4" d="M1238.05 1114.65C1237.95 1113.84 1238.54 1113.1 1239.36 1113C1240.18 1112.9 1240.93 1113.48 1241.03 1114.29L1245.5 1151.05C1245.6 1151.87 1245.01 1152.61 1244.19 1152.71C1243.37 1152.81 1242.62 1152.23 1242.53 1151.42L1238.05 1114.65Z" fill="white"/>
<path opacity="0.4" d="M1125.03 1026.71C1124.39 1026.21 1124.27 1025.27 1124.77 1024.63C1125.28 1023.99 1126.21 1023.88 1126.85 1024.38L1240.48 1113.34C1241.12 1113.84 1241.23 1114.78 1240.73 1115.42C1240.23 1116.06 1239.29 1116.18 1238.65 1115.67L1125.03 1026.71Z" fill="white"/>
<g opacity="0.4">
<mask id="mask1_430_129" style="mask-type:luminance" maskUnits="userSpaceOnUse" x="1217" y="1161" width="84" height="84">
<path d="M1217.69 1170.35L1291.09 1161.41L1300.16 1235.91L1226.76 1244.84L1217.69 1170.35Z" fill="white"/>
</mask>
<g mask="url(#mask1_430_129)">
<path d="M1220.4 1173.95C1219.76 1173.45 1219.65 1172.51 1220.15 1171.87C1220.65 1171.23 1221.58 1171.12 1222.22 1171.62L1299.01 1231.74C1299.65 1232.24 1299.76 1233.17 1299.26 1233.82C1298.76 1234.45 1297.82 1234.56 1297.18 1234.07L1220.4 1173.95Z" fill="white"/>
</g>
</g>
<g opacity="0.4">
<mask id="mask2_430_129" style="mask-type:luminance" maskUnits="userSpaceOnUse" x="1152" y="1126" width="152" height="153">
<path d="M1152.08 1142.76L1286.82 1126.36L1303.36 1262.2L1168.61 1278.6L1152.08 1142.76Z" fill="white"/>
</mask>
<g mask="url(#mask2_430_129)">
<path d="M1154.02 1147.15C1153.38 1146.64 1153.26 1145.72 1153.77 1145.07C1154.26 1144.43 1155.2 1144.32 1155.84 1144.82L1302.46 1259.62C1303.11 1260.13 1303.22 1261.05 1302.72 1261.69C1302.21 1262.34 1301.28 1262.45 1300.64 1261.95L1154.02 1147.15Z" fill="white"/>
</g>
</g>
<path opacity="0.4" d="M1183.13 1143.5C1183.04 1142.69 1183.62 1141.95 1184.44 1141.85C1185.27 1141.75 1186.01 1142.33 1186.11 1143.14L1189.62 1171.95C1189.72 1172.77 1189.14 1173.51 1188.31 1173.61C1187.48 1173.71 1186.74 1173.13 1186.64 1172.31L1183.13 1143.5Z" fill="white"/>
<path opacity="0.4" d="M1099.06 1078.23C1098.42 1077.72 1098.31 1076.79 1098.81 1076.15C1099.31 1075.5 1100.24 1075.39 1100.88 1075.9L1185.56 1142.19C1186.2 1142.7 1186.32 1143.62 1185.81 1144.27C1185.31 1144.91 1184.38 1145.02 1183.74 1144.52L1099.06 1078.23Z" fill="white"/>
<path opacity="0.4" d="M1167.35 1113.15C1167.25 1112.35 1167.84 1111.63 1168.66 1111.53C1169.49 1111.43 1170.23 1111.99 1170.33 1112.78L1172.76 1132.74C1172.85 1133.54 1172.26 1134.26 1171.44 1134.36C1170.62 1134.46 1169.88 1133.9 1169.78 1133.1L1167.35 1113.15Z" fill="white"/>
<path opacity="0.4" d="M1145.52 1095.78C1144.89 1095.27 1144.77 1094.32 1145.26 1093.67C1145.75 1093.02 1146.66 1092.91 1147.29 1093.42L1169.79 1111.83C1170.42 1112.35 1170.53 1113.29 1170.04 1113.94C1169.56 1114.59 1168.65 1114.7 1168.02 1114.19L1145.52 1095.78Z" fill="white"/>
<g opacity="0.4">
<mask id="mask3_430_129" style="mask-type:luminance" maskUnits="userSpaceOnUse" x="1127" y="1124" width="180" height="180">
<path d="M1127.71 1143.5L1286.56 1124.17L1306.03 1284.11L1147.18 1303.44L1127.71 1143.5Z" fill="white"/>
</mask>
<g mask="url(#mask3_430_129)">
<path d="M1130.31 1147.17C1129.68 1146.67 1129.56 1145.74 1130.06 1145.1C1130.56 1144.46 1131.5 1144.35 1132.14 1144.85L1304.91 1280.12C1305.54 1280.61 1305.65 1281.55 1305.16 1282.19C1304.65 1282.83 1303.72 1282.94 1303.08 1282.44L1130.31 1147.17Z" fill="white"/>
</g>
</g>
<g opacity="0.4">
<mask id="mask4_430_129" style="mask-type:luminance" maskUnits="userSpaceOnUse" x="1166" y="1176" width="143" height="144">
<path d="M1166.98 1192.09L1292.96 1176.75L1308.43 1303.83L1182.45 1319.16L1166.98 1192.09Z" fill="white"/>
</mask>
<g mask="url(#mask4_430_129)">
<path d="M1169.43 1196.37C1168.78 1195.87 1168.67 1194.95 1169.17 1194.3C1169.68 1193.66 1170.6 1193.55 1171.24 1194.05L1307.42 1300.67C1308.07 1301.18 1308.18 1302.11 1307.68 1302.75C1307.18 1303.39 1306.25 1303.51 1305.61 1303L1169.43 1196.37Z" fill="white"/>
</g>
</g>
<g opacity="0.4">
<mask id="mask5_430_129" style="mask-type:luminance" maskUnits="userSpaceOnUse" x="1086" y="1132" width="210" height="210">
<path d="M1086.88 1155.14L1273.12 1132.47L1295.75 1318.43L1109.52 1341.1L1086.88 1155.14Z" fill="white"/>
</mask>
<g mask="url(#mask5_430_129)">
<path d="M1088.59 1157.97C1087.95 1157.46 1087.84 1156.54 1088.34 1155.9C1088.84 1155.25 1089.78 1155.14 1090.42 1155.64L1294.97 1315.8C1295.62 1316.3 1295.73 1317.23 1295.22 1317.87C1294.72 1318.51 1293.79 1318.63 1293.14 1318.12L1088.59 1157.97Z" fill="white"/>
</g>
</g>
<path opacity="0.4" d="M1184.43 1257.7C1183.62 1257.8 1182.9 1257.44 1182.83 1256.89C1182.77 1256.33 1183.38 1255.81 1184.18 1255.71L1213 1252.21C1213.82 1252.11 1214.53 1252.47 1214.6 1253.02C1214.67 1253.57 1214.06 1254.09 1213.24 1254.19L1184.43 1257.7Z" fill="white"/>
<path opacity="0.4" d="M1154.49 1235.6C1153.85 1235.11 1153.74 1234.21 1154.24 1233.59C1154.75 1232.96 1155.69 1232.85 1156.33 1233.34L1185.21 1255.14C1185.85 1255.63 1185.96 1256.53 1185.45 1257.15C1184.94 1257.78 1184.02 1257.89 1183.37 1257.4L1154.49 1235.6Z" fill="white"/>
<path opacity="0.4" d="M1090.79 1216.71C1089.98 1216.81 1089.24 1216.23 1089.13 1215.4C1089.03 1214.59 1089.61 1213.83 1090.42 1213.74L1153.99 1206C1154.8 1205.9 1155.54 1206.49 1155.64 1207.31C1155.74 1208.13 1155.16 1208.88 1154.35 1208.98L1090.79 1216.71Z" fill="white"/>
<path opacity="0.4" d="M1049.91 1162.76C1049.28 1162.26 1049.16 1161.34 1049.66 1160.7C1050.16 1160.06 1051.08 1159.95 1051.72 1160.45L1116.38 1211.08C1117.02 1211.58 1117.13 1212.5 1116.63 1213.13C1116.13 1213.77 1115.21 1213.88 1114.57 1213.38L1049.91 1162.76Z" fill="white"/>
<path opacity="0.4" d="M1099.89 1146.56C1099.8 1145.76 1100.39 1145.03 1101.21 1144.93C1102.03 1144.83 1102.77 1145.4 1102.87 1146.2L1105.54 1168.12C1105.64 1168.92 1105.05 1169.65 1104.23 1169.75C1103.41 1169.85 1102.66 1169.29 1102.56 1168.48L1099.89 1146.56Z" fill="white"/>
<path opacity="0.4" d="M1035.86 1096.98C1035.22 1096.48 1035.11 1095.56 1035.61 1094.92C1036.11 1094.28 1037.04 1094.17 1037.68 1094.67L1102.33 1145.29C1102.97 1145.79 1103.08 1146.71 1102.58 1147.35C1102.08 1147.99 1101.15 1148.1 1100.51 1147.6L1035.86 1096.98Z" fill="white"/>
<path opacity="0.4" d="M1057.39 1191.07C1056.75 1190.57 1056.64 1189.65 1057.14 1189.01C1057.64 1188.37 1058.56 1188.26 1059.2 1188.76L1091.56 1214.1C1092.2 1214.6 1092.31 1215.52 1091.81 1216.16C1091.31 1216.79 1090.39 1216.91 1089.75 1216.41L1057.39 1191.07Z" fill="white"/>
<g opacity="0.4">
<mask id="mask6_430_129" style="mask-type:luminance" maskUnits="userSpaceOnUse" x="1110" y="1226" width="114" height="114">
<path d="M1110.43 1238.99L1211.22 1226.72L1223.45 1327.23L1122.67 1339.5L1110.43 1238.99Z" fill="white"/>
</mask>
<g mask="url(#mask6_430_129)">
<path d="M1111.32 1241.48C1110.68 1240.98 1110.57 1240.05 1111.07 1239.41C1111.58 1238.76 1112.51 1238.65 1113.15 1239.15L1222.34 1324.65C1222.98 1325.14 1223.09 1326.08 1222.59 1326.72C1222.09 1327.36 1221.16 1327.48 1220.52 1326.97L1111.32 1241.48Z" fill="white"/>
</g>
</g>
<path opacity="0.4" d="M1068.36 1247.65C1067.55 1247.75 1066.81 1247.16 1066.71 1246.34C1066.61 1245.52 1067.18 1244.77 1067.99 1244.67L1111.73 1239.35C1112.53 1239.25 1113.26 1239.84 1113.36 1240.66C1113.46 1241.48 1112.89 1242.23 1112.09 1242.33L1068.36 1247.65Z" fill="white"/>
<path opacity="0.4" d="M965.806 1166.96C965.167 1166.46 965.055 1165.54 965.555 1164.9C966.056 1164.26 966.983 1164.15 967.622 1164.65L1069.02 1244.04C1069.66 1244.54 1069.77 1245.46 1069.27 1246.1C1068.77 1246.74 1067.84 1246.85 1067.2 1246.35L965.806 1166.96Z" fill="white"/>
<path opacity="0.4" d="M1034.04 1184.83C1033.94 1184.01 1034.52 1183.27 1035.34 1183.17C1036.16 1183.07 1036.91 1183.64 1037.01 1184.47L1041.85 1224.19C1041.95 1225 1041.36 1225.75 1040.54 1225.85C1039.72 1225.95 1038.97 1225.37 1038.87 1224.55L1034.04 1184.83Z" fill="white"/>
<path opacity="0.4" d="M1002.29 1160.5C1001.65 1160 1001.54 1159.08 1002.04 1158.44C1002.54 1157.8 1003.47 1157.69 1004.1 1158.19L1036.46 1183.53C1037.1 1184.03 1037.22 1184.95 1036.72 1185.59C1036.22 1186.23 1035.3 1186.34 1034.66 1185.84L1002.29 1160.5Z" fill="white"/>
<g opacity="0.4">
<mask id="mask7_430_129" style="mask-type:luminance" maskUnits="userSpaceOnUse" x="1140" y="1282" width="55" height="55">
<path d="M1140.93 1288.64L1189.13 1282.77L1194.97 1330.7L1146.76 1336.57L1140.93 1288.64Z" fill="white"/>
</mask>
<g mask="url(#mask7_430_129)">
<path d="M1143.93 1292.49C1143.28 1291.98 1143.17 1291.05 1143.67 1290.41C1144.18 1289.76 1145.11 1289.65 1145.75 1290.15L1194.2 1328.09C1194.84 1328.6 1194.95 1329.53 1194.45 1330.16C1193.95 1330.81 1193.02 1330.92 1192.38 1330.42L1143.93 1292.49Z" fill="white"/>
</g>
</g>
<path opacity="0.4" d="M1118.58 1295.94C1117.76 1296.04 1117.01 1295.45 1116.91 1294.63C1116.81 1293.81 1117.4 1293.06 1118.22 1292.96L1145.01 1289.7C1145.84 1289.6 1146.59 1290.18 1146.69 1291.01C1146.79 1291.82 1146.2 1292.57 1145.38 1292.67L1118.58 1295.94Z" fill="white"/>
<path opacity="0.4" d="M1077.37 1264.19C1076.73 1263.69 1076.62 1262.76 1077.12 1262.13C1077.62 1261.49 1078.55 1261.38 1079.19 1261.88L1119.34 1293.31C1119.98 1293.81 1120.09 1294.74 1119.59 1295.38C1119.1 1296.02 1118.17 1296.13 1117.53 1295.63L1077.37 1264.19Z" fill="white"/>
<path opacity="0.4" d="M1079.72 1257.81C1080.25 1258.23 1080.67 1258.72 1081 1259.29C1081.32 1259.87 1081.53 1260.49 1081.61 1261.15C1081.69 1261.81 1081.64 1262.46 1081.46 1263.1C1081.28 1263.74 1080.99 1264.31 1080.58 1264.84C1080.17 1265.36 1079.68 1265.78 1079.1 1266.11C1078.52 1266.43 1077.9 1266.64 1077.24 1266.72C1076.59 1266.8 1075.94 1266.75 1075.3 1266.57C1074.66 1266.4 1074.08 1266.1 1073.56 1265.69C1073.04 1265.28 1072.61 1264.79 1072.29 1264.21C1071.96 1263.63 1071.76 1263.01 1071.68 1262.36C1071.6 1261.7 1071.64 1261.05 1071.83 1260.41C1072 1259.77 1072.3 1259.2 1072.7 1258.67C1073.11 1258.15 1073.61 1257.72 1074.19 1257.4C1074.76 1257.08 1075.38 1256.87 1076.04 1256.79C1076.7 1256.71 1077.35 1256.76 1077.99 1256.94C1078.63 1257.11 1079.2 1257.41 1079.72 1257.81Z" fill="white"/>
<path opacity="0.4" d="M1060.74 1184.58C1061.26 1184.99 1061.69 1185.48 1062.01 1186.06C1062.34 1186.63 1062.54 1187.25 1062.62 1187.91C1062.7 1188.57 1062.65 1189.21 1062.47 1189.85C1062.3 1190.49 1062 1191.08 1061.59 1191.6C1061.19 1192.12 1060.69 1192.54 1060.11 1192.87C1059.53 1193.2 1058.92 1193.39 1058.26 1193.47C1057.6 1193.55 1056.95 1193.51 1056.32 1193.33C1055.68 1193.15 1055.1 1192.86 1054.58 1192.45C1054.06 1192.04 1053.63 1191.55 1053.3 1190.97C1052.98 1190.39 1052.77 1189.78 1052.69 1189.12C1052.61 1188.46 1052.66 1187.81 1052.84 1187.18C1053.02 1186.54 1053.32 1185.95 1053.72 1185.43C1054.13 1184.91 1054.63 1184.49 1055.2 1184.16C1055.77 1183.83 1056.39 1183.63 1057.05 1183.55C1057.71 1183.47 1058.36 1183.52 1059 1183.7C1059.64 1183.88 1060.22 1184.17 1060.74 1184.58Z" fill="white"/>
<path opacity="0.4" d="M1156.84 1229.29C1157.37 1229.7 1157.78 1230.2 1158.12 1230.77C1158.44 1231.35 1158.64 1231.96 1158.72 1232.62C1158.81 1233.29 1158.75 1233.93 1158.58 1234.57C1158.39 1235.21 1158.11 1235.79 1157.69 1236.31C1157.29 1236.83 1156.8 1237.26 1156.22 1237.58C1155.64 1237.91 1155.02 1238.11 1154.36 1238.19C1153.71 1238.27 1153.06 1238.23 1152.42 1238.04C1151.78 1237.87 1151.19 1237.57 1150.68 1237.17C1150.16 1236.76 1149.73 1236.26 1149.41 1235.68C1149.07 1235.11 1148.88 1234.49 1148.8 1233.83C1148.72 1233.17 1148.76 1232.52 1148.94 1231.88C1149.12 1231.25 1149.41 1230.67 1149.82 1230.15C1150.23 1229.63 1150.72 1229.2 1151.3 1228.87C1151.88 1228.55 1152.5 1228.34 1153.15 1228.26C1153.81 1228.18 1154.46 1228.23 1155.1 1228.41C1155.74 1228.59 1156.32 1228.89 1156.84 1229.29Z" fill="white"/>
<path opacity="0.4" d="M968.154 1160.59C968.682 1161 969.099 1161.49 969.431 1162.07C969.753 1162.64 969.959 1163.26 970.039 1163.92C970.12 1164.58 970.067 1165.23 969.893 1165.86C969.709 1166.51 969.423 1167.09 969.008 1167.61C968.601 1168.13 968.113 1168.55 967.534 1168.88C966.956 1169.21 966.336 1169.41 965.675 1169.49C965.023 1169.57 964.374 1169.52 963.733 1169.34C963.094 1169.17 962.509 1168.87 961.99 1168.46C961.47 1168.06 961.044 1167.56 960.721 1166.98C960.389 1166.4 960.193 1165.79 960.113 1165.13C960.032 1164.47 960.075 1163.82 960.259 1163.19C960.434 1162.55 960.728 1161.97 961.135 1161.45C961.542 1160.93 962.039 1160.5 962.617 1160.17C963.196 1159.85 963.815 1159.64 964.467 1159.56C965.128 1159.48 965.778 1159.53 966.418 1159.71C967.058 1159.89 967.634 1160.18 968.154 1160.59Z" fill="white"/>
<path opacity="0.4" d="M1005.63 1154.01C1006.15 1154.42 1006.58 1154.91 1006.9 1155.49C1007.23 1156.07 1007.44 1156.69 1007.52 1157.35C1007.6 1158 1007.55 1158.65 1007.36 1159.29C1007.19 1159.93 1006.89 1160.5 1006.49 1161.03C1006.08 1161.55 1005.58 1161.98 1005.01 1162.3C1004.44 1162.62 1003.82 1162.83 1003.16 1162.91C1002.5 1162.99 1001.85 1162.94 1001.21 1162.76C1000.57 1162.59 999.99 1162.29 999.47 1161.89C998.949 1161.47 998.524 1160.98 998.201 1160.4C997.87 1159.83 997.672 1159.21 997.593 1158.55C997.513 1157.89 997.555 1157.24 997.739 1156.6C997.913 1155.96 998.209 1155.39 998.616 1154.87C999.022 1154.34 999.518 1153.91 1000.1 1153.59C1000.68 1153.27 1001.29 1153.06 1001.95 1152.98C1002.61 1152.9 1003.26 1152.95 1003.89 1153.13C1004.53 1153.3 1005.11 1153.6 1005.63 1154.01Z" fill="white"/>
<path opacity="0.4" d="M1052.27 1156.4C1052.79 1156.8 1053.22 1157.3 1053.54 1157.88C1053.86 1158.45 1054.07 1159.07 1054.15 1159.73C1054.23 1160.39 1054.18 1161.03 1054 1161.67C1053.83 1162.31 1053.53 1162.89 1053.13 1163.41C1052.71 1163.93 1052.22 1164.36 1051.64 1164.68C1051.07 1165.01 1050.45 1165.21 1049.79 1165.29C1049.13 1165.37 1048.48 1165.33 1047.84 1165.15C1047.2 1164.97 1046.63 1164.67 1046.11 1164.27C1045.58 1163.86 1045.15 1163.37 1044.83 1162.79C1044.51 1162.21 1044.3 1161.6 1044.22 1160.94C1044.14 1160.28 1044.19 1159.63 1044.37 1158.99C1044.54 1158.35 1044.84 1157.77 1045.25 1157.25C1045.66 1156.73 1046.15 1156.3 1046.73 1155.97C1047.3 1155.65 1047.92 1155.44 1048.58 1155.36C1049.24 1155.28 1049.89 1155.34 1050.53 1155.51C1051.17 1155.69 1051.74 1155.99 1052.27 1156.4Z" fill="white"/>
<path opacity="0.4" d="M1090.98 1151.68C1091.51 1152.09 1091.92 1152.59 1092.25 1153.16C1092.58 1153.74 1092.78 1154.35 1092.86 1155.02C1092.94 1155.67 1092.89 1156.32 1092.72 1156.96C1092.53 1157.6 1092.25 1158.18 1091.83 1158.7C1091.43 1159.22 1090.94 1159.65 1090.36 1159.97C1089.78 1160.3 1089.16 1160.5 1088.5 1160.58C1087.85 1160.66 1087.2 1160.62 1086.56 1160.43C1085.92 1160.26 1085.34 1159.96 1084.81 1159.56C1084.29 1159.15 1083.87 1158.65 1083.55 1158.07C1083.22 1157.49 1083.02 1156.88 1082.94 1156.22C1082.86 1155.56 1082.91 1154.91 1083.08 1154.27C1083.26 1153.64 1083.55 1153.06 1083.96 1152.54C1084.37 1152.01 1084.86 1151.59 1085.44 1151.26C1086.02 1150.94 1086.64 1150.73 1087.29 1150.65C1087.95 1150.57 1088.6 1150.62 1089.24 1150.8C1089.88 1150.98 1090.46 1151.27 1090.98 1151.68Z" fill="white"/>
<path opacity="0.4" d="M1038.21 1090.6C1038.74 1091.02 1039.15 1091.51 1039.49 1092.09C1039.81 1092.66 1040.02 1093.28 1040.09 1093.94C1040.18 1094.6 1040.12 1095.25 1039.95 1095.89C1039.77 1096.53 1039.48 1097.1 1039.06 1097.62C1038.66 1098.15 1038.17 1098.57 1037.59 1098.9C1037.01 1099.22 1036.39 1099.43 1035.73 1099.51C1035.08 1099.59 1034.43 1099.54 1033.79 1099.36C1033.15 1099.18 1032.57 1098.89 1032.05 1098.48C1031.53 1098.07 1031.1 1097.58 1030.78 1097C1030.45 1096.42 1030.25 1095.8 1030.17 1095.14C1030.09 1094.49 1030.14 1093.84 1030.31 1093.2C1030.49 1092.56 1030.79 1091.99 1031.19 1091.46C1031.61 1090.94 1032.09 1090.51 1032.67 1090.19C1033.25 1089.87 1033.87 1089.66 1034.52 1089.58C1035.18 1089.5 1035.83 1089.55 1036.47 1089.73C1037.11 1089.9 1037.69 1090.2 1038.21 1090.6Z" fill="white"/>
<path opacity="0.4" d="M1172.23 1190.15C1172.75 1190.55 1173.18 1191.05 1173.5 1191.62C1173.82 1192.2 1174.03 1192.82 1174.11 1193.48C1174.19 1194.14 1174.14 1194.78 1173.96 1195.42C1173.79 1196.06 1173.49 1196.65 1173.08 1197.17C1172.67 1197.69 1172.18 1198.11 1171.6 1198.43C1171.02 1198.77 1170.4 1198.96 1169.75 1199.04C1169.09 1199.12 1168.44 1199.08 1167.8 1198.9C1167.16 1198.72 1166.59 1198.43 1166.07 1198.02C1165.54 1197.61 1165.11 1197.12 1164.79 1196.54C1164.47 1195.96 1164.26 1195.35 1164.18 1194.69C1164.1 1194.03 1164.15 1193.38 1164.33 1192.74C1164.5 1192.11 1164.8 1191.52 1165.21 1191C1165.62 1190.48 1166.11 1190.06 1166.69 1189.72C1167.26 1189.4 1167.88 1189.2 1168.54 1189.12C1169.2 1189.04 1169.85 1189.09 1170.49 1189.26C1171.13 1189.45 1171.7 1189.74 1172.23 1190.15Z" fill="white"/>
<path opacity="0.4" d="M1133.07 1141.52C1133.59 1141.93 1134.01 1142.42 1134.33 1143C1134.66 1143.58 1134.86 1144.19 1134.94 1144.86C1135.02 1145.51 1134.97 1146.16 1134.8 1146.8C1134.62 1147.44 1134.33 1148.01 1133.92 1148.54C1133.51 1149.06 1133.02 1149.49 1132.44 1149.81C1131.86 1150.13 1131.24 1150.34 1130.59 1150.42C1129.93 1150.5 1129.28 1150.45 1128.64 1150.27C1128 1150.1 1127.42 1149.8 1126.89 1149.4C1126.37 1148.98 1125.95 1148.49 1125.63 1147.91C1125.3 1147.34 1125.1 1146.72 1125.02 1146.06C1124.94 1145.4 1124.99 1144.75 1125.16 1144.11C1125.34 1143.47 1125.63 1142.9 1126.04 1142.38C1126.45 1141.85 1126.94 1141.43 1127.52 1141.1C1128.1 1140.78 1128.72 1140.57 1129.38 1140.49C1130.03 1140.41 1130.68 1140.46 1131.32 1140.64C1131.96 1140.82 1132.54 1141.11 1133.07 1141.52Z" fill="white"/>
<path opacity="0.4" d="M1157.24 1141.46C1157.75 1141.82 1158.17 1142.26 1158.48 1142.77C1158.8 1143.29 1159 1143.84 1159.07 1144.44C1159.14 1145.03 1159.08 1145.61 1158.9 1146.19C1158.72 1146.77 1158.42 1147.3 1158.01 1147.77C1157.58 1148.25 1157.09 1148.63 1156.51 1148.93C1155.93 1149.24 1155.31 1149.42 1154.65 1149.5C1153.99 1149.58 1153.35 1149.55 1152.71 1149.4C1152.07 1149.25 1151.5 1148.99 1150.98 1148.63C1150.46 1148.27 1150.04 1147.82 1149.73 1147.31C1149.41 1146.79 1149.22 1146.24 1149.14 1145.65C1149.07 1145.05 1149.13 1144.46 1149.31 1143.89C1149.5 1143.31 1149.8 1142.78 1150.21 1142.31C1150.63 1141.84 1151.12 1141.45 1151.7 1141.14C1152.29 1140.84 1152.91 1140.65 1153.57 1140.57C1154.22 1140.49 1154.87 1140.53 1155.5 1140.68C1156.14 1140.84 1156.71 1141.1 1157.24 1141.46Z" fill="white"/>
<path opacity="0.4" d="M1147.86 1089.34C1148.39 1089.75 1148.82 1090.25 1149.14 1090.83C1149.46 1091.4 1149.67 1092.02 1149.75 1092.68C1149.83 1093.34 1149.78 1093.99 1149.6 1094.63C1149.43 1095.26 1149.13 1095.84 1148.72 1096.36C1148.31 1096.88 1147.82 1097.31 1147.24 1097.64C1146.66 1097.96 1146.04 1098.17 1145.38 1098.25C1144.73 1098.33 1144.08 1098.28 1143.44 1098.1C1142.8 1097.92 1142.23 1097.62 1141.7 1097.22C1141.18 1096.81 1140.75 1096.31 1140.43 1095.74C1140.11 1095.16 1139.9 1094.54 1139.82 1093.88C1139.74 1093.22 1139.79 1092.58 1139.97 1091.94C1140.14 1091.3 1140.44 1090.72 1140.84 1090.2C1141.26 1089.68 1141.75 1089.25 1142.33 1088.93C1142.9 1088.6 1143.52 1088.4 1144.18 1088.32C1144.84 1088.24 1145.49 1088.28 1146.13 1088.47C1146.77 1088.64 1147.34 1088.94 1147.86 1089.34Z" fill="white"/>
<path opacity="0.4" d="M1101.41 1071.83C1101.93 1072.24 1102.36 1072.73 1102.68 1073.31C1103.01 1073.89 1103.21 1074.5 1103.29 1075.16C1103.37 1075.82 1103.33 1076.47 1103.14 1077.11C1102.97 1077.74 1102.67 1078.33 1102.27 1078.85C1101.86 1079.38 1101.36 1079.79 1100.79 1080.12C1100.21 1080.45 1099.6 1080.65 1098.94 1080.73C1098.28 1080.81 1097.62 1080.76 1096.99 1080.59C1096.35 1080.4 1095.77 1080.12 1095.25 1079.7C1094.73 1079.29 1094.3 1078.8 1093.98 1078.23C1093.65 1077.65 1093.44 1077.03 1093.36 1076.37C1093.28 1075.71 1093.34 1075.07 1093.52 1074.43C1093.69 1073.79 1093.99 1073.2 1094.39 1072.68C1094.8 1072.16 1095.3 1071.74 1095.88 1071.41C1096.45 1071.08 1097.07 1070.89 1097.73 1070.81C1098.39 1070.73 1099.03 1070.77 1099.67 1070.95C1100.31 1071.13 1100.89 1071.42 1101.41 1071.83Z" fill="white"/>
<path opacity="0.4" d="M1138.53 1062.28C1139.05 1062.69 1139.48 1063.18 1139.8 1063.76C1140.13 1064.33 1140.33 1064.95 1140.41 1065.61C1140.49 1066.27 1140.44 1066.92 1140.26 1067.56C1140.09 1068.2 1139.79 1068.77 1139.39 1069.3C1138.98 1069.82 1138.48 1070.25 1137.9 1070.57C1137.32 1070.89 1136.71 1071.1 1136.05 1071.18C1135.39 1071.26 1134.74 1071.21 1134.1 1071.03C1133.47 1070.86 1132.89 1070.56 1132.37 1070.15C1131.85 1069.74 1131.42 1069.25 1131.09 1068.67C1130.77 1068.09 1130.56 1067.48 1130.48 1066.82C1130.4 1066.16 1130.45 1065.51 1130.63 1064.87C1130.81 1064.23 1131.11 1063.66 1131.51 1063.14C1131.92 1062.61 1132.42 1062.19 1132.99 1061.86C1133.56 1061.54 1134.18 1061.33 1134.84 1061.25C1135.51 1061.17 1136.15 1061.22 1136.79 1061.4C1137.43 1061.58 1138.01 1061.87 1138.53 1062.28Z" fill="white"/>
<path opacity="0.4" d="M1222.9 1167.85C1223.43 1168.26 1223.85 1168.75 1224.18 1169.33C1224.5 1169.91 1224.7 1170.52 1224.78 1171.18C1224.86 1171.84 1224.81 1172.49 1224.64 1173.13C1224.46 1173.76 1224.17 1174.35 1223.75 1174.87C1223.35 1175.39 1222.86 1175.81 1222.28 1176.15C1221.7 1176.47 1221.08 1176.68 1220.42 1176.76C1219.77 1176.84 1219.12 1176.78 1218.48 1176.61C1217.84 1176.43 1217.26 1176.13 1216.73 1175.72C1216.22 1175.32 1215.79 1174.82 1215.47 1174.24C1215.14 1173.67 1214.94 1173.05 1214.86 1172.39C1214.78 1171.73 1214.83 1171.09 1215 1170.45C1215.18 1169.81 1215.47 1169.23 1215.88 1168.71C1216.3 1168.19 1216.78 1167.76 1217.36 1167.44C1217.94 1167.11 1218.56 1166.91 1219.21 1166.83C1219.87 1166.75 1220.52 1166.79 1221.16 1166.97C1221.8 1167.15 1222.38 1167.44 1222.9 1167.85Z" fill="white"/>
<path opacity="0.4" d="M1128.36 1020.19C1128.89 1020.61 1129.31 1021.1 1129.64 1021.68C1129.96 1022.25 1130.17 1022.87 1130.25 1023.53C1130.33 1024.19 1130.28 1024.84 1130.1 1025.48C1129.92 1026.12 1129.63 1026.69 1129.22 1027.21C1128.81 1027.74 1128.32 1028.17 1127.74 1028.49C1127.16 1028.81 1126.54 1029.02 1125.88 1029.1C1125.23 1029.18 1124.58 1029.13 1123.94 1028.95C1123.3 1028.78 1122.72 1028.48 1122.2 1028.07C1121.68 1027.66 1121.25 1027.17 1120.93 1026.59C1120.6 1026.01 1120.4 1025.39 1120.32 1024.73C1120.24 1024.08 1120.28 1023.43 1120.47 1022.79C1120.64 1022.15 1120.94 1021.58 1121.34 1021.05C1121.75 1020.53 1122.25 1020.1 1122.83 1019.78C1123.4 1019.46 1124.02 1019.25 1124.68 1019.17C1125.34 1019.09 1125.99 1019.14 1126.63 1019.32C1127.27 1019.49 1127.84 1019.79 1128.36 1020.19Z" fill="white"/>
<g opacity="0.4">
<mask id="mask8_430_129" style="mask-type:luminance" maskUnits="userSpaceOnUse" x="1135" y="1315" width="25" height="23">
<path d="M1135.63 1318.19L1157.54 1315.52L1159.91 1334.97L1138 1337.63L1135.63 1318.19Z" fill="white"/>
</mask>
<g mask="url(#mask8_430_129)">
<path d="M1138.42 1320.72C1137.78 1320.21 1137.66 1319.28 1138.17 1318.64C1138.67 1317.99 1139.59 1317.88 1140.24 1318.38L1158.23 1332.47C1158.87 1332.97 1158.98 1333.91 1158.48 1334.54C1157.98 1335.19 1157.04 1335.3 1156.4 1334.8L1138.42 1320.72Z" fill="white"/>
</g>
</g>
<g opacity="0.4">
<mask id="mask9_430_129" style="mask-type:luminance" maskUnits="userSpaceOnUse" x="1148" y="1347" width="25" height="23">
<path d="M1148 1349.67L1169.91 1347L1172.28 1366.44L1150.37 1369.11L1148 1349.67Z" fill="white"/>
</mask>
<g mask="url(#mask9_430_129)">
<path d="M1150.78 1352.19C1150.14 1351.69 1150.03 1350.76 1150.53 1350.11C1151.03 1349.47 1151.96 1349.36 1152.6 1349.86L1170.59 1363.95C1171.24 1364.45 1171.35 1365.38 1170.85 1366.02C1170.34 1366.66 1169.41 1366.78 1168.77 1366.27L1150.78 1352.19Z" fill="white"/>
</g>
</g>
<path opacity="0.4" d="M1017.59 1335.43C1016.78 1335.53 1016.04 1334.94 1015.94 1334.11C1015.84 1333.3 1016.42 1332.55 1017.23 1332.45L1139.37 1317.58C1140.18 1317.48 1140.92 1318.07 1141.02 1318.89C1141.12 1319.71 1140.54 1320.46 1139.73 1320.56L1017.59 1335.43Z" fill="white"/>
<path opacity="0.4" d="M1029.78 1369.59C1028.98 1369.7 1028.23 1369.13 1028.11 1368.31C1027.99 1367.5 1028.55 1366.73 1029.35 1366.62L1151.13 1349.05C1151.95 1348.93 1152.7 1349.5 1152.82 1350.31C1152.94 1351.14 1152.37 1351.9 1151.56 1352.02L1029.78 1369.59Z" fill="white"/>
<path opacity="0.4" d="M1019.09 1330.67C1019.61 1331.09 1020.03 1331.58 1020.36 1332.16C1020.69 1332.73 1020.89 1333.35 1020.97 1334.01C1021.05 1334.67 1021 1335.32 1020.82 1335.96C1020.65 1336.6 1020.35 1337.17 1019.94 1337.69C1019.54 1338.22 1019.04 1338.65 1018.46 1338.97C1017.89 1339.29 1017.27 1339.5 1016.61 1339.58C1015.95 1339.66 1015.3 1339.61 1014.66 1339.43C1014.02 1339.26 1013.44 1338.96 1012.92 1338.55C1012.4 1338.14 1011.97 1337.65 1011.65 1337.07C1011.32 1336.5 1011.12 1335.88 1011.04 1335.21C1010.96 1334.56 1011 1333.91 1011.19 1333.27C1011.36 1332.63 1011.66 1332.06 1012.06 1331.53C1012.47 1331.01 1012.97 1330.58 1013.55 1330.26C1014.12 1329.94 1014.74 1329.73 1015.4 1329.65C1016.06 1329.57 1016.71 1329.62 1017.34 1329.8C1017.98 1329.97 1018.57 1330.27 1019.09 1330.67Z" fill="white"/>
<path opacity="0.4" d="M1031.07 1363.48C1031.59 1363.9 1032.02 1364.39 1032.34 1364.97C1032.67 1365.54 1032.87 1366.16 1032.95 1366.82C1033.03 1367.48 1032.99 1368.13 1032.8 1368.77C1032.63 1369.41 1032.33 1369.98 1031.92 1370.5C1031.52 1371.03 1031.02 1371.46 1030.44 1371.78C1029.87 1372.1 1029.25 1372.31 1028.59 1372.39C1027.93 1372.47 1027.28 1372.42 1026.65 1372.24C1026.01 1372.07 1025.42 1371.77 1024.9 1371.36C1024.38 1370.95 1023.95 1370.46 1023.63 1369.88C1023.3 1369.31 1023.1 1368.69 1023.02 1368.03C1022.94 1367.37 1022.99 1366.72 1023.17 1366.08C1023.34 1365.44 1023.64 1364.87 1024.05 1364.34C1024.45 1363.82 1024.95 1363.39 1025.53 1363.07C1026.1 1362.75 1026.72 1362.54 1027.38 1362.46C1028.04 1362.38 1028.69 1362.43 1029.33 1362.61C1029.97 1362.78 1030.55 1363.08 1031.07 1363.48Z" fill="white"/>
<path opacity="0.4" d="M992.331 1252.38C991.683 1251.88 991.571 1250.96 992.08 1250.32C992.588 1249.68 993.52 1249.56 994.168 1250.07L1089.84 1324.1C1090.49 1324.61 1090.6 1325.53 1090.09 1326.17C1089.58 1326.81 1088.65 1326.92 1088 1326.42L992.331 1252.38Z" fill="white"/>
<path opacity="0.4" d="M995.672 1245.89C996.192 1246.3 996.617 1246.79 996.94 1247.36C997.263 1247.94 997.469 1248.56 997.549 1249.22C997.628 1249.88 997.577 1250.53 997.402 1251.17C997.228 1251.81 996.933 1252.39 996.526 1252.91C996.111 1253.43 995.623 1253.86 995.044 1254.18C994.466 1254.51 993.846 1254.71 993.194 1254.79C992.533 1254.87 991.883 1254.82 991.243 1254.64C990.604 1254.47 990.028 1254.17 989.508 1253.76C988.98 1253.36 988.562 1252.86 988.231 1252.28C987.908 1251.7 987.702 1251.08 987.622 1250.43C987.542 1249.77 987.593 1249.12 987.768 1248.48C987.951 1247.84 988.238 1247.27 988.654 1246.75C989.06 1246.22 989.549 1245.8 990.126 1245.47C990.705 1245.15 991.325 1244.94 991.985 1244.86C992.637 1244.78 993.288 1244.83 993.927 1245.01C994.568 1245.19 995.143 1245.48 995.672 1245.89Z" fill="white"/>
<path opacity="0.4" d="M1263.2 1048.13C1263.1 1047.32 1263.68 1046.57 1264.5 1046.47C1265.33 1046.37 1266.07 1046.95 1266.17 1047.77L1282.01 1177.84C1282.11 1178.65 1281.52 1179.39 1280.69 1179.49C1279.88 1179.59 1279.13 1179.01 1279.03 1178.21L1263.2 1048.13Z" fill="white"/>
<path opacity="0.4" d="M1267.09 1042.59C1267.61 1043 1268.03 1043.5 1268.36 1044.08C1268.69 1044.65 1268.89 1045.26 1268.97 1045.93C1269.05 1046.59 1269 1047.24 1268.83 1047.88C1268.64 1048.51 1268.36 1049.09 1267.94 1049.61C1267.53 1050.13 1267.05 1050.56 1266.47 1050.89C1265.89 1051.21 1265.27 1051.42 1264.61 1051.5C1263.96 1051.58 1263.31 1051.53 1262.67 1051.35C1262.03 1051.17 1261.44 1050.87 1260.92 1050.47C1260.4 1050.06 1259.98 1049.56 1259.65 1048.99C1259.32 1048.41 1259.13 1047.79 1259.05 1047.13C1258.96 1046.47 1259.01 1045.83 1259.19 1045.19C1259.37 1044.55 1259.66 1043.97 1260.07 1043.45C1260.47 1042.93 1260.97 1042.5 1261.55 1042.18C1262.13 1041.85 1262.75 1041.65 1263.4 1041.57C1264.06 1041.49 1264.71 1041.53 1265.35 1041.72C1265.99 1041.89 1266.57 1042.19 1267.09 1042.59Z" fill="white"/>
<path opacity="0.4" d="M1241.19 1079.01C1240.56 1078.52 1240.45 1077.61 1240.94 1076.97C1241.44 1076.34 1242.35 1076.23 1242.99 1076.72L1270.92 1098.59C1271.56 1099.08 1271.67 1100 1271.17 1100.64C1270.68 1101.27 1269.76 1101.38 1269.12 1100.89L1241.19 1079.01Z" fill="white"/>
<path opacity="0.4" d="M1243.56 1072.67C1244.08 1073.07 1244.5 1073.56 1244.82 1074.14C1245.16 1074.72 1245.35 1075.34 1245.43 1076C1245.51 1076.65 1245.47 1077.3 1245.29 1077.94C1245.11 1078.58 1244.82 1079.16 1244.41 1079.68C1244 1080.2 1243.51 1080.63 1242.93 1080.95C1242.35 1081.28 1241.74 1081.48 1241.08 1081.56C1240.42 1081.64 1239.77 1081.6 1239.13 1081.42C1238.5 1081.24 1237.91 1080.95 1237.39 1080.54C1236.87 1080.13 1236.45 1079.64 1236.12 1079.06C1235.79 1078.48 1235.59 1077.86 1235.51 1077.21C1235.43 1076.55 1235.48 1075.9 1235.65 1075.26C1235.84 1074.62 1236.13 1074.04 1236.54 1073.52C1236.94 1072.99 1237.44 1072.57 1238.01 1072.24C1238.59 1071.92 1239.21 1071.72 1239.87 1071.64C1240.53 1071.55 1241.17 1071.61 1241.81 1071.78C1242.45 1071.96 1243.04 1072.25 1243.56 1072.67Z" fill="white"/>
<defs>
<filter id="filter0_d_430_129" x="0" y="0.474609" width="1308" height="1466.13" filterUnits="userSpaceOnUse" color-interpolation-filters="sRGB">
<feFlood flood-opacity="0" result="BackgroundImageFix"/>
<feColorMatrix in="SourceAlpha" type="matrix" values="0 0 0 0 0 0 0 0 0 0 0 0 0 0 0 0 0 0 127 0" result="hardAlpha"/>
<feOffset dy="4"/>
<feGaussianBlur stdDeviation="2"/>
<feComposite in2="hardAlpha" operator="out"/>
<feColorMatrix type="matrix" values="0 0 0 0 0 0 0 0 0 0 0 0 0 0 0 0 0 0 0.25 0"/>
<feBlend mode="normal" in2="BackgroundImageFix" result="effect1_dropShadow_430_129"/>
<feBlend mode="normal" in="SourceGraphic" in2="effect1_dropShadow_430_129" result="shape"/>
</filter>
</defs>
</svg>
